<svg width="164" height="26" viewBox="0 0 164 26" fill="none" xmlns="http://www.w3.org/2000/svg">
<path d="M0.175293 6.13484C0.175293 2.84347 2.84347 0.175293 6.13484 0.175293C9.42621 0.175293 12.0944 2.84347 12.0944 6.13484V12.0944H6.13484C2.84347 12.0944 0.175293 9.42621 0.175293 6.13484Z" fill="white"/>
<path d="M0.175293 20.0404C0.175293 16.7491 2.84347 14.0809 6.13484 14.0809C9.42621 14.0809 12.0944 16.7491 12.0944 20.0404C12.0944 23.3318 9.42621 26 6.13484 26C2.84347 26 0.175293 23.3318 0.175293 20.0404Z" fill="white"/>
<path d="M26 6.13484C26 2.84347 23.3318 0.175293 20.0404 0.175293C16.7491 0.175293 14.0809 2.84347 14.0809 6.13484V12.0944H20.0404C23.3318 12.0944 26 9.42621 26 6.13484Z" fill="white"/>
<path d="M26 20.0404C26 23.3318 23.3318 26 20.0404 26C16.7491 26 14.0809 23.3318 14.0809 20.0404V14.0809H20.0404C23.3318 14.0809 26 16.7491 26 20.0404Z" fill="white"/>
<path d="M52.9167 16.9776H47.7427L46.7813 19.3549H43.2504L48.6516 7.11899H52.0602L57.4789 19.3549H53.8781L52.9167 16.9776ZM51.9029 14.4255L50.3297 10.5101L48.7565 14.4255H51.9029Z" fill="white"/>
<path d="M71.8497 7.11899V19.3549H69.0005L63.5992 12.8349V19.3549H60.2081V7.11899H63.0573L68.4586 13.639V7.11899H71.8497Z" fill="white"/>
<path d="M84.237 16.9776H79.063L78.1016 19.3549H74.5707L79.9719 7.11899H83.3805L88.7992 19.3549H85.1984L84.237 16.9776ZM83.2232 14.4255L81.65 10.5101L80.0768 14.4255H83.2232Z" fill="white"/>
<path d="M91.5284 7.11899H94.9894V16.6105H100.828V19.3549H91.5284V7.11899Z" fill="white"/>
<path d="M109.254 14.9674V19.3549H105.793V14.915L101.126 7.11899H104.779L107.681 11.9784L110.583 7.11899H113.939L109.254 14.9674Z" fill="white"/>
<path d="M118.881 9.86332H115.123V7.11899H126.083V9.86332H122.342V19.3549H118.881V9.86332Z" fill="white"/>
<path d="M129.12 7.11899H132.581V19.3549H129.12V7.11899Z" fill="white"/>
<path d="M142.892 19.5996C141.61 19.5996 140.457 19.3316 139.431 18.7955C138.417 18.2478 137.619 17.4903 137.036 16.5231C136.454 15.5559 136.162 14.4605 136.162 13.2369C136.162 12.0133 136.454 10.9179 137.036 9.95072C137.619 8.9835 138.417 8.23187 139.431 7.69582C140.457 7.14812 141.61 6.87427 142.892 6.87427C144.011 6.87427 145.019 7.07237 145.916 7.46858C146.813 7.86479 147.559 8.4358 148.153 9.1816L145.951 11.1743C145.159 10.2187 144.197 9.74096 143.067 9.74096C142.403 9.74096 141.808 9.88662 141.284 10.178C140.771 10.4693 140.369 10.883 140.078 11.419C139.798 11.9434 139.658 12.5494 139.658 13.2369C139.658 13.9245 139.798 14.5363 140.078 15.0723C140.369 15.5967 140.771 16.0046 141.284 16.2959C141.808 16.5872 142.403 16.7329 143.067 16.7329C144.197 16.7329 145.159 16.2551 145.951 15.2995L148.153 17.2922C147.559 18.038 146.813 18.6091 145.916 19.0053C145.019 19.4015 144.011 19.5996 142.892 19.5996Z" fill="white"/>
<path d="M159.438 16.9776H154.264L153.302 19.3549H149.771L155.173 7.11899H158.581L164 19.3549H160.399L159.438 16.9776ZM158.424 14.4255L156.851 10.5101L155.278 14.4255H158.424Z" fill="white"/>
</svg>
