<svg width="39" height="39" viewBox="0 0 39 39" fill="none" xmlns="http://www.w3.org/2000/svg">
<path d="M0 9C0 4.02944 4.02944 0 9 0C13.9706 0 18 4.02944 18 9V18H9C4.02944 18 0 13.9706 0 9Z" fill="#092E7E"/>
<path d="M0 30C0 25.0294 4.02944 21 9 21C13.9706 21 18 25.0294 18 30C18 34.9706 13.9706 39 9 39C4.02944 39 0 34.9706 0 30Z" fill="#10B981"/>
<path d="M39 9C39 4.02944 34.9706 0 30 0C25.0294 0 21 4.02944 21 9V18H30C34.9706 18 39 13.9706 39 9Z" fill="#092E7E"/>
<path d="M39 30C39 34.9706 34.9706 39 30 39C25.0294 39 21 34.9706 21 30V21H30C34.9706 21 39 25.0294 39 30Z" fill="#092E7E"/>
</svg>
